<?xml version="1.0" encoding="utf-8"?>
<!-- Generator: Adobe Illustrator 27.5.0, SVG Export Plug-In . SVG Version: 6.00 Build 0)  -->
<svg version="1.1" id="Capa_1" xmlns="http://www.w3.org/2000/svg" xmlns:xlink="http://www.w3.org/1999/xlink" x="0px" y="0px"
	 viewBox="0 0 2122 2122" style="enable-background:new 0 0 2122 2122;" xml:space="preserve">
<g>
	<path style="fill:#99C55B;" d="M1867.34,1165.745c3.644-34.769,6.333-71.9,6.333-108.198c0-62.023-7.479-121.506-20.744-179.508
		c-0.986-4.669-1.84-9.034-2.155-14.196c-1.327-5.155,22.927-22.273,21.505-27.389c-97.963-352.376-421.156-610.979-804.747-610.979
		c-461.259,0-835.185,373.925-835.185,835.184c0,15.021,27.84,52.008,31.296,66.447c11.826,85.955,34.043,171.041,60.312,245.736
		c2.499,9.36-17.882,31.549-13.8,40.305c132.914,285.101,422.07,482.697,757.377,482.697c409.275,0,749.792-294.392,821.346-682.971
		C1890.698,1202.992,1865.872,1175.745,1867.34,1165.745z"/>
	<path style="fill:#64B445;" d="M1850.774,863.844c-5.966-10.469-12.172-20.778-18.877-30.724
		c-43.02-63.812-98.453-117.749-163.704-158.661c-131.19-82.256-297.776-101.826-444.555-52.284
		c-47.549,16.05-92.167,38.206-133.142,66.068c-7.993,2.67-15.61,6.011-22.466,10.124
		c-150.955,80.51-261.655,291.846-462.929,241.528c-120.763-30.191-181.146-191.21-181.146-311.973
		c-1.815-39.929,3.002-78.192,13.1-114.67C309.651,659.864,232.348,851.175,232.348,1060.66c0,15.021,27.84,52.008,31.296,66.447
		l0,0l0,0c7.756,84.032,29.734,170.07,60.312,245.736l0,0c2.499,9.361-17.882,31.549-13.8,40.304
		c132.914,285.102,422.07,482.698,757.376,482.698c232.81,0,443.284-95.341,594.747-249.005
		c-199.335,95.934-446.76,107.873-584.186-82.996c-193.048-245.697,19.397-499.045,96.994-746.702
		c77.547-59.871,169.747-92.378,287.727-69.833c77.688,14.845,153.963,53.706,210.111,109.615
		c112.811,112.333,190.923,300.337,194.415,308.824c2.16-35.304,4.735-71.112,4.735-107.409
		C1872.075,991.111,1863.396,924.527,1850.774,863.844z"/>
	<path style="fill:#F7EDD7;" d="M612.766,1396.3c98.484-31.349,180.087-98.977,244.16-178.501
		c159.365-197.794,290.559-530.749,605.889-470.492c77.688,14.845,153.964,53.706,210.11,109.615
		c112.812,112.333,190.924,300.337,194.416,308.824c4.643-35.029,7.276-70.692,7.276-106.989c0-67.225-8.354-132.478-23.843-194.913
		c-5.965-10.469-12.172-20.777-18.876-30.724c-43.021-63.812-98.453-117.749-163.705-158.661
		c-131.191-82.256-297.776-101.826-444.555-52.284c-77.15,26.041-146.615,68.101-205.251,124.654
		c-55.468,53.497-100.212,117.863-141.649,182.5c-64.246,100.214-123.829,213.182-222.685,284.172
		c-60.695,43.587-137.681,60.68-210.912,44.925c-80.014-17.214-133.382-67.428-179.497-131.32
		c7.26,86.49,27.932,169.164,60.312,245.736C413.973,1414.922,518.649,1426.259,612.766,1396.3z"/>
	<path style="fill:#F5D8BD;" d="M1377.811,689.998c-233.137,11.574-360.598,238.14-491.425,439.413
		c-117.842,181.296-360.498,308.486-578.48,201.854c5.018,14.022,10.278,27.929,16.05,41.576
		c90.018,42.081,194.693,53.418,288.81,23.458c98.484-31.35,180.088-98.978,244.16-178.501
		c159.365-197.794,290.559-530.749,605.889-470.492c77.688,14.845,153.964,53.706,210.11,109.615
		c112.812,112.333,190.924,300.337,194.416,308.824c4.456-33.618,6.997-67.835,7.199-102.621
		C1770.593,860.383,1630.698,677.444,1377.811,689.998z"/>
	<path style="fill:#ACCF76;" d="M1544.351,802.916c103.954,45.984,169.973,148.331,225.849,247.321
		c17.315,30.677,34.251,61.569,50.8,92.666c9.239,17.361,18.469,35.092,22.293,54.384c4.569,23.048,1.142,46.892-3.406,69.944
		c-10.372,52.576-26.557,104.003-48.165,153.044c-23.802,54.022-54.832,105.934-98.689,145.449
		c-43.858,39.515-101.798,65.71-160.761,62.836c-58.963-2.874-117.467-38.294-139.384-93.108
		c-23.469-58.697-3.272-124.42,5.363-187.042c7.25-52.574,6.033-106.307-3.589-158.5c-5.656-30.683-14.514-61.505-32.577-86.944
		c-18.289-25.758-44.772-44.336-66.898-66.883c-26.022-26.516-46.476-59.855-51.609-96.65
		C1220.716,775.55,1436.15,755.053,1544.351,802.916z"/>
	<path style="fill:#ACCF76;" d="M1180.838,265.72c160.344,21.26,313.845,91.59,434.651,199.143
		c26.326,23.437,52.491,51.198,57.389,86.102c0.515,3.671,0.742,7.6-0.948,10.9c-3.079,6.009-10.932,7.426-17.679,7.69
		c-45.707,1.788-89.489-16.192-133.442-28.86c-124.141-35.777-260.069-29.234-380.199,18.303
		c-87.2,34.506-170.92,90.838-264.641,87.527c-65.099-2.299-129.051-36.492-164.272-91.288
		c-35.205-54.773-48.885-163.873,7.861-211.036c68.24-56.716,191.134-73.283,276.015-81.552
		C1057.175,256.647,1119.473,257.583,1180.838,265.72z"/>
	<path style="fill:#99C55B;" d="M1188.295,324.652c-12.395,0-12.415,19.263,0,19.263
		C1200.69,343.914,1200.71,324.652,1188.295,324.652z"/>
	<path style="fill:#99C55B;" d="M1260.126,374.008c-0.849-2.608-2.298-4.864-4.349-6.769c-2.625-2.606-5.718-4.409-9.28-5.408
		l-0.311-0.043l-0.159-0.022c-1.707-0.23-3.414-0.459-5.121-0.688c-1.711,0.227-3.422,0.457-5.133,0.689l-0.038,0.005l-0.076,0.01
		l-0.305,0.041l-0.038,0.006c-3.563,0.999-6.656,2.802-9.281,5.408c-1.096,1.419-2.192,2.838-3.289,4.257
		c-1.902,3.281-2.859,6.818-2.871,10.615c0.251,1.864,0.501,3.727,0.751,5.591c0.999,3.563,2.802,6.657,5.409,9.281
		c1.419,1.097,2.838,2.192,4.257,3.289c3.28,1.902,6.818,2.859,10.614,2.872c2.896,0.109,5.597-0.495,8.103-1.811
		c2.608-0.848,4.863-2.298,6.769-4.349c2.05-1.905,3.5-4.161,4.349-6.768c1.317-2.507,1.92-5.207,1.811-8.103
		C1262.046,379.214,1261.443,376.514,1260.126,374.008z"/>
	<path style="fill:#99C55B;" d="M1388.133,374.976c-0.42-1.498-1.178-2.799-2.274-3.903c-0.597-0.461-1.194-0.922-1.791-1.383
		c-1.38-0.8-2.867-1.203-4.465-1.208c-1.217-0.046-2.354,0.209-3.408,0.762c-1.097,0.357-2.045,0.967-2.846,1.829
		c-0.863,0.801-1.473,1.75-1.829,2.846c-0.554,1.054-0.808,2.191-0.762,3.408c0.105,0.784,0.211,1.568,0.316,2.351
		c0.421,1.499,1.179,2.8,2.275,3.903c0.597,0.461,1.193,0.922,1.79,1.383c1.38,0.801,2.868,1.203,4.464,1.208
		c1.218,0.046,2.354-0.207,3.408-0.762c1.097-0.357,2.045-0.966,2.847-1.829c0.863-0.802,1.471-1.751,1.828-2.847
		c0.554-1.054,0.807-2.19,0.762-3.408C1388.344,376.544,1388.239,375.76,1388.133,374.976z"/>
	<path style="fill:#99C55B;" d="M1378.17,423.787c-0.279-0.507-0.559-1.013-0.838-1.519c-0.997-1.685-2.338-3.026-4.023-4.023
		c-1.749-1.015-3.636-1.525-5.661-1.532c-2.024,0.007-3.91,0.517-5.66,1.532c-1.685,0.997-3.026,2.338-4.024,4.023
		c-0.28,0.506-0.559,1.012-0.839,1.519c-1.103,1.9-1.657,3.951-1.664,6.15c0.006,2.2,0.561,4.25,1.664,6.151
		c1.083,1.832,2.541,3.289,4.372,4.372c1.901,1.102,3.951,1.657,6.151,1.664c2.201-0.007,4.25-0.561,6.151-1.664
		c1.831-1.083,3.289-2.54,4.371-4.372c1.103-1.901,1.657-3.951,1.664-6.151C1379.827,427.738,1379.273,425.688,1378.17,423.787z"/>
	<path style="fill:#99C55B;" d="M1488.496,460.573c-0.428-1.316-1.16-2.455-2.195-3.416c-0.716-0.553-1.432-1.106-2.148-1.66
		c-1.655-0.96-3.441-1.443-5.357-1.449c-0.941,0.126-1.882,0.253-2.822,0.38c-1.797,0.504-3.359,1.414-4.683,2.73l-1.284,1.007
		c-1.055,0.979-1.8,2.139-2.235,3.479c-0.677,1.288-0.988,2.676-0.931,4.165c-0.056,1.488,0.254,2.876,0.931,4.165
		c0.435,1.34,1.18,2.5,2.235,3.479c0.729,0.563,1.458,1.127,2.187,1.69c1.686,0.978,3.505,1.47,5.457,1.476
		c0.957-0.129,1.915-0.259,2.873-0.387c1.832-0.513,3.422-1.44,4.771-2.78l1.006-1.284c1.036-0.962,1.767-2.1,2.195-3.417
		c0.664-1.265,0.97-2.628,0.914-4.09C1489.466,463.202,1489.16,461.839,1488.496,460.573z"/>
	<path style="fill:#99C55B;" d="M1549.392,458.175c-12.901,0-12.922,20.049,0,20.049
		C1562.292,478.224,1562.313,458.175,1549.392,458.175z"/>
	<path style="fill:#99C55B;" d="M1101.053,489.135c-0.532-1.898-1.493-3.546-2.882-4.944c-1.397-1.388-3.045-2.349-4.943-2.881
		c-0.637-0.234-1.27-0.486-1.912-0.702c-1.811-0.487-3.623-0.487-5.434,0c-1.732,0.485-3.234,1.361-4.51,2.628
		c-1.267,1.275-2.143,2.778-2.629,4.509c-0.486,1.811-0.486,3.623,0,5.434c0.217,0.642,0.469,1.276,0.701,1.912
		c0.533,1.898,1.493,3.546,2.881,4.944c1.398,1.388,3.046,2.349,4.944,2.881c1.986,0.533,3.971,0.533,5.957,0
		c1.898-0.532,3.546-1.493,4.943-2.881c1.389-1.398,2.349-3.046,2.882-4.944C1101.587,493.106,1101.587,491.12,1101.053,489.135z"/>
	<path style="fill:#99C55B;" d="M1044.676,331.87c-0.523-1.863-1.465-3.481-2.829-4.854c-0.511-0.816-1.096-1.57-1.753-2.26
		c-1.483-1.147-2.968-2.293-4.452-3.44c-1.752-0.739-3.504-1.478-5.255-2.217l-0.098-0.031l-0.179-0.055l-0.376-0.117l-0.376-0.117
		l-0.198-0.061l-0.079-0.025l-5.721-0.768c-2.921-0.11-5.645,0.499-8.172,1.827c-2.63,0.856-4.905,2.317-6.826,4.386
		c-1.105,1.431-2.211,2.862-3.316,4.293c-1.919,3.308-2.884,6.876-2.896,10.705c-0.252,2.38,0.323,4.294,0.965,6.355l0.117,0.376
		l0.055,0.178l0.031,0.099c0.285,0.914,0.656,1.797,1.116,2.647c0.887,2.727,2.404,5.088,4.549,7.081l0.034,0.032
		c1.484,1.147,2.968,2.293,4.453,3.44c2.525,1.608,5.251,2.478,8.179,2.61c1.949,0.524,3.898,0.524,5.849,0
		c1.391-0.187,2.024-0.152,3.014-0.418l0.217-0.058l0.443-0.118c6.896-1.845,12.569-7.518,14.414-14.415l0.116-0.432l0.058-0.215
		l0.027-0.102c0.261-1.949,0.523-3.899,0.785-5.848C1046.685,337.317,1046.053,334.492,1044.676,331.87z"/>
	<path style="fill:#99C55B;" d="M846.33,491.237c-29.996,0-30.045,46.617,0,46.617C876.326,537.854,876.376,491.237,846.33,491.237z
		"/>
	<path style="fill:#99C55B;" d="M818.667,375.25c-0.469-1.437-1.268-2.682-2.398-3.732c-1.447-1.437-3.152-2.431-5.118-2.982
		c-2.054-0.552-4.11-0.552-6.164,0c-0.606,0.186-1.211,0.372-1.815,0.557c-0.878,0.371-1.756,0.741-2.633,1.111
		c-1.284,0.693-2.316,1.638-3.092,2.838c-0.683,0.688-1.156,1.498-1.416,2.431c-0.69,1.314-1.006,2.728-0.949,4.245
		c0.132,0.977,0.262,1.953,0.394,2.93c0.37,0.878,0.741,1.755,1.111,2.632c0.691,1.284,1.637,2.315,2.837,3.092
		c1.065,0.973,2.313,1.631,3.749,1.972c0.604,0.186,1.209,0.372,1.815,0.558c2.054,0.552,4.11,0.552,6.164,0
		c1.966-0.551,3.671-1.546,5.118-2.982c0.605-0.782,1.209-1.565,1.814-2.347c1.049-1.809,1.578-3.76,1.583-5.854
		C819.726,378.122,819.392,376.633,818.667,375.25z"/>
	<path style="fill:#99C55B;" d="M941.985,396.589c-12.141,0-12.162,18.87,0,18.87C954.127,415.458,954.146,396.589,941.985,396.589z
		"/>
	<path style="fill:#99C55B;" d="M986.21,514.7c-1.104-0.64-2.294-0.963-3.571-0.966c-1.278,0.003-2.468,0.326-3.572,0.966
		c-0.599,0.339-1.197,0.678-1.796,1.018c-1.8,1.02-2.921,3.035-2.921,5.091c0,2.057,1.121,4.071,2.921,5.091
		c0.599,0.34,1.197,0.679,1.796,1.019c1.104,0.64,2.294,0.962,3.572,0.966c1.277-0.004,2.468-0.326,3.571-0.966
		c2.152-1.259,3.505-3.616,3.505-6.11S988.362,515.959,986.21,514.7z"/>
	<path style="fill:#99C55B;" d="M939.432,329.958c-0.346-1.231-0.969-2.301-1.871-3.209c-0.49-0.379-0.981-0.758-1.471-1.138
		c-1.135-0.658-2.358-0.989-3.67-0.992h-2.72h-0.657l-1.06,0.129l-1.054,0.153c-1.228,0.345-2.295,0.966-3.199,1.864
		c-0.898,0.905-1.52,1.971-1.865,3.199c-0.22,0.641-0.322,1.092-0.322,1.928c0,0.837,0.102,1.286,0.322,1.927
		c0.345,1.228,0.966,2.295,1.865,3.199c0.904,0.898,1.971,1.52,3.199,1.865c0.684,0.192,1.404,0.276,2.114,0.282h0.657h2.72
		c1.001,0.037,1.935-0.172,2.802-0.627c0.901-0.293,1.682-0.794,2.34-1.504c0.709-0.659,1.211-1.439,1.504-2.34
		c0.456-0.867,0.665-1.801,0.627-2.802C939.606,331.247,939.519,330.603,939.432,329.958z"/>
	<path style="fill:#99C55B;" d="M765.024,459.354c-11.383,0-11.401,17.69,0,17.69C776.407,477.045,776.425,459.354,765.024,459.354z
		"/>
	<path style="fill:#99C55B;" d="M908.506,555.042c-14.419,0-14.444,22.407,0,22.407
		C922.924,577.449,922.948,555.042,908.506,555.042z"/>
	<path style="fill:#99C55B;" d="M1042.902,417.603c-0.495-1.765-1.388-3.297-2.68-4.597c-0.703-0.543-1.405-1.086-2.108-1.629
		c-1.625-0.942-3.377-1.416-5.258-1.422c-1.434-0.054-2.771,0.245-4.013,0.897c-1.292,0.42-2.409,1.138-3.352,2.154
		c-1.016,0.944-1.734,2.061-2.155,3.353c-0.652,1.241-0.951,2.579-0.897,4.013l0.372,2.77c0.495,1.765,1.388,3.297,2.68,4.597
		l2.108,1.629c1.625,0.942,3.378,1.416,5.257,1.422c1.434,0.054,2.773-0.245,4.014-0.897c1.291-0.421,2.409-1.138,3.353-2.154
		c1.016-0.943,1.735-2.061,2.154-3.353c0.652-1.242,0.951-2.58,0.897-4.014C1043.15,419.449,1043.026,418.526,1042.902,417.603z"/>
	<path style="fill:#99C55B;" d="M1222.238,470.91c-0.787-1.329-1.844-2.387-3.172-3.173l-1.089-0.577l-0.534-0.282
		c-0.437-0.234-0.892-0.427-1.367-0.582c-0.737-0.231-1.474-0.264-2.211-0.099c-0.738,0.033-1.426,0.253-2.062,0.658l-0.064,0.034
		l-0.277,0.147l-1.068,0.565c-0.443,0.234-0.664,0.451-1.151,0.827c-0.964,0.624-1.723,1.451-2.279,2.482
		c-0.8,1.379-1.203,2.867-1.208,4.464c0.105,0.784,0.211,1.568,0.316,2.351c0.42,1.498,1.178,2.799,2.274,3.903
		c0.802,0.862,1.75,1.472,2.847,1.828c1.054,0.554,2.19,0.808,3.408,0.762c1.217,0.045,2.354-0.209,3.408-0.762
		c1.097-0.356,2.045-0.966,2.846-1.828c1.096-1.104,1.854-2.405,2.275-3.903c0.105-0.784,0.211-1.568,0.316-2.351
		C1223.441,473.777,1223.038,472.289,1222.238,470.91z"/>
	<path style="fill:#99C55B;" d="M1291.124,366.452c-7.841,0-7.854,12.186,0,12.186
		C1298.965,378.638,1298.979,366.452,1291.124,366.452z"/>
	<path style="fill:#99C55B;" d="M1133.774,398.472c-0.495-1.765-1.388-3.297-2.679-4.597c-0.703-0.543-1.406-1.086-2.108-1.629
		c-1.625-0.943-3.378-1.416-5.258-1.423c-1.434-0.054-2.772,0.245-4.013,0.897c-1.293,0.42-2.409,1.138-3.353,2.154
		c-1.016,0.943-1.734,2.061-2.154,3.353c-0.653,1.241-0.952,2.579-0.898,4.013l0.372,2.77c0.495,1.765,1.388,3.297,2.679,4.597
		c0.702,0.543,1.405,1.086,2.108,1.629c1.625,0.942,3.378,1.416,5.258,1.422c1.434,0.055,2.772-0.244,4.014-0.897
		c1.292-0.42,2.409-1.138,3.353-2.154c1.016-0.943,1.734-2.061,2.154-3.353c0.653-1.241,0.952-2.579,0.897-4.014
		C1134.022,400.318,1133.898,399.395,1133.774,398.472z"/>
	<path style="fill:#99C55B;" d="M1582.871,504.79c-11.383,0-11.401,17.69,0,17.69C1594.253,522.48,1594.272,504.79,1582.871,504.79z
		"/>
	<path style="fill:#99C55B;" d="M1496.635,868.878c-0.74-1.754-1.48-3.507-2.22-5.261c-1.384-2.566-3.275-4.626-5.672-6.179
		c-2.127-1.947-4.623-3.26-7.488-3.941c-0.81-0.124-1.62-0.248-2.43-0.372c-3.971-1.068-7.942-1.068-11.913,0
		c-3.796,1.064-7.091,2.985-9.888,5.762c-1.167,1.512-2.335,3.023-3.503,4.535c-2.028,3.495-3.047,7.266-3.06,11.31
		c-0.116,3.085,0.527,5.962,1.93,8.633c0.903,2.777,2.448,5.182,4.632,7.211c2.797,2.777,6.093,4.698,9.888,5.762
		c3.971,1.067,7.942,1.067,11.913,0c0.81-0.124,1.62-0.248,2.43-0.372c1.753-0.74,3.507-1.48,5.26-2.22
		c2.566-1.383,4.626-3.274,6.179-5.672c1.365-1.375,2.309-2.993,2.831-4.859c1.379-2.625,2.011-5.453,1.897-8.484L1496.635,868.878z
		"/>
	<path style="fill:#99C55B;" d="M1632.83,944.909c-0.568-1.346-1.136-2.692-1.704-4.038c-0.881-1.141-1.762-2.281-2.643-3.422
		c-1.531-1.648-3.345-2.813-5.441-3.495c-2.014-1.058-4.185-1.544-6.513-1.456c-0.564,0.034-1.128,0.068-1.691,0.102
		c-1.687,0.102-3.085,0.374-4.981,0.645c-2.295,0.328-6.352,2.751-7.858,4.517l-0.491,0.592l-0.982,1.184l-0.491,0.592l-0.287,0.345
		c-2.657,3.211-2.515,2.996-4.022,6.907c-0.182,1.352-0.363,2.705-0.545,4.057c-0.079,2.1,0.359,4.061,1.314,5.879
		c0.363,1.293,1.017,2.415,1.962,3.367c1.076,1.662,2.504,2.972,4.282,3.931c2.006,1.265,4.133,1.691,6.344,2.221
		c0.996,0.238,1.844,0.314,2.958,0.464c2.324,0.52,4.649,0.417,6.973-0.313c1.483-0.453,2.896-1.052,4.238-1.796l0.352-0.227
		c0.486-0.322,0.972-0.644,1.458-0.966c1.141-0.881,2.281-1.762,3.422-2.643c1.648-1.531,2.813-3.344,3.495-5.44
		c0.765-1.319,1.15-2.74,1.154-4.266C1633.635,949.403,1633.534,947.156,1632.83,944.909z"/>
	<path style="fill:#99C55B;" d="M1468.085,1080.585c-18.212,0-18.243,28.304,0,28.304
		C1486.297,1108.888,1486.328,1080.585,1468.085,1080.585z"/>
	<path style="fill:#99C55B;" d="M1695.859,1164.154c-0.463,0.11-0.927,0.218-1.391,0.328c-11.423,2.687-11.433,20.434,0,23.123
		c0.464,0.109,0.928,0.218,1.391,0.327C1715.72,1192.604,1715.841,1159.454,1695.859,1164.154z"/>
	<path style="fill:#99C55B;" d="M1771.789,1152.032c-9.359,0-9.374,14.545,0,14.545
		C1781.148,1166.577,1781.163,1152.032,1771.789,1152.032z"/>
	<path style="fill:#99C55B;" d="M1690.482,1309.894c-12.395,0-12.415,19.263,0,19.263
		C1702.877,1329.157,1702.897,1309.894,1690.482,1309.894z"/>
	<path style="fill:#99C55B;" d="M1635.481,1476.896c-12.901,0-12.922,20.049,0,20.049
		C1648.381,1496.945,1648.402,1476.896,1635.481,1476.896z"/>
	<path style="fill:#99C55B;" d="M1539.826,1351.366c-14.418,0-14.442,22.407,0,22.407
		C1554.244,1373.774,1554.269,1351.366,1539.826,1351.366z"/>
	<path style="fill:#99C55B;" d="M1613.958,1240.348c-12.647,0-12.669,19.655,0,19.655
		C1626.606,1260.003,1626.627,1240.348,1613.958,1240.348z"/>
	<path style="fill:#99C55B;" d="M1587.504,1192.746c-1.289-4.595-3.614-8.585-6.976-11.969c-1.83-1.414-3.66-2.828-5.49-4.241
		c-4.231-2.454-8.794-3.688-13.691-3.703c-3.734-0.142-7.218,0.637-10.45,2.336c-3.363,1.094-6.273,2.963-8.729,5.608
		c-2.645,2.457-4.515,5.367-5.609,8.73c-1.698,3.232-2.477,6.716-2.335,10.451c0.322,2.404,0.646,4.807,0.968,7.211
		c1.289,4.595,3.614,8.585,6.976,11.969c1.829,1.414,3.659,2.828,5.489,4.241c4.231,2.454,8.794,3.688,13.69,3.704
		c3.735,0.141,7.218-0.638,10.451-2.337c3.362-1.094,6.273-2.963,8.729-5.608c2.645-2.457,4.514-5.367,5.609-8.73
		c1.698-3.232,2.477-6.716,2.336-10.45C1588.15,1197.553,1587.827,1195.15,1587.504,1192.746z"/>
	<path style="fill:#99C55B;" d="M1645.046,1066.171c-12.141,0-12.161,18.87,0,18.87
		C1657.188,1085.041,1657.207,1066.171,1645.046,1066.171z"/>
	<path style="fill:#99C55B;" d="M1558.126,1057.201c-0.175-0.536-0.472-1-0.894-1.392l-0.875-0.676
		c-0.674-0.392-1.402-0.588-2.183-0.59c-0.797,0.076-1.594,0.153-2.391,0.229c-0.575,0.077-1.15,0.155-1.724,0.232
		c-0.516,0.218-1.033,0.435-1.55,0.653c-0.755,0.408-1.362,0.964-1.819,1.671c-0.402,0.405-0.681,0.882-0.834,1.431
		c-0.293,0.505-0.441,1.051-0.443,1.637c-0.154,0.574-0.154,1.149,0,1.724c0.002,0.585,0.15,1.131,0.443,1.637
		c0.262,0.804,0.709,1.5,1.341,2.087l1.312,1.015c0.517,0.218,1.034,0.436,1.55,0.654c0.574,0.077,1.149,0.155,1.724,0.231
		c0.575-0.077,1.149-0.154,1.724-0.231c0.516-0.218,1.033-0.436,1.55-0.654c0.755-0.408,1.363-0.965,1.819-1.671
		c0.403-0.405,0.68-0.882,0.834-1.431c0.406-0.773,0.593-1.606,0.558-2.5c0.077-0.797,0.154-1.594,0.23-2.391
		C1558.521,1058.271,1558.397,1057.716,1558.126,1057.201z"/>
	<path style="fill:#99C55B;" d="M1535.043,941.395c-9.612,0-9.627,14.938,0,14.938
		C1544.655,956.333,1544.672,941.395,1535.043,941.395z"/>
	<path style="fill:#99C55B;" d="M1404.787,969.218c-0.373-1.145-1.009-2.136-1.91-2.973l-0.543-0.461
		c-0.767-0.826-1.676-1.409-2.726-1.751c-1.009-0.531-2.097-0.774-3.263-0.729c-0.75,0.1-1.501,0.201-2.252,0.303
		c-1.435,0.402-2.681,1.128-3.738,2.178l-0.543,0.461c-0.481,0.624-0.963,1.246-1.444,1.87c-0.311,0.735-0.621,1.471-0.931,2.207
		c-0.385,1.228-0.44,2.456-0.165,3.684c0.003,0.833,0.213,1.611,0.63,2.331c0.22,0.782,0.616,1.462,1.188,2.039
		c0.41,0.694,0.963,1.246,1.657,1.657c0.576,0.572,1.255,0.968,2.038,1.188c1.102,0.578,2.287,0.843,3.56,0.795
		c0.818-0.11,1.637-0.22,2.456-0.33c0.736-0.311,1.471-0.621,2.207-0.932c0.624-0.481,1.247-0.963,1.87-1.444
		c0.482-0.624,0.963-1.247,1.444-1.87c0.311-0.736,0.621-1.471,0.932-2.207c0.386-1.228,0.44-2.456,0.165-3.684
		C1405.415,970.715,1405.205,969.938,1404.787,969.218z"/>
	<path style="fill:#99C55B;" d="M1393.992,852.875c-0.487-1.737-1.366-3.245-2.636-4.524l-1.02-1.09
		c-0.795-0.614-1.591-1.229-2.387-1.844c-0.939-0.396-1.877-0.792-2.817-1.188c-1.568-0.492-3.135-0.562-4.702-0.211
		c-1.065,0.003-2.057,0.271-2.977,0.805c-0.999,0.28-1.866,0.786-2.602,1.517c-0.886,0.524-1.59,1.23-2.115,2.115
		c-0.731,0.736-1.236,1.603-1.517,2.602c-0.738,1.405-1.077,2.92-1.015,4.545c0.14,1.045,0.281,2.089,0.421,3.135
		c0.396,0.94,0.793,1.878,1.189,2.817c0.615,0.796,1.229,1.592,1.844,2.387c0.795,0.615,1.591,1.23,2.387,1.844
		c0.94,0.397,1.879,0.793,2.817,1.189c1.568,0.491,3.136,0.561,4.703,0.211c1.065-0.003,2.057-0.271,2.976-0.805
		c1.461-0.475,2.727-1.289,3.795-2.439l1.02-1.09c0.999-0.929,1.706-2.029,2.12-3.299c0.642-1.222,0.936-2.538,0.883-3.949
		C1394.236,854.692,1394.114,853.784,1393.992,852.875z"/>
	<path style="fill:#99C55B;" d="M1472.211,970.322c-0.439-1.565-1.231-2.924-2.376-4.077c-1.152-1.145-2.512-1.937-4.076-2.376
		c-1.545-0.273-3.089-0.546-4.633-0.819c-0.698-0.094-1.396-0.188-2.093-0.281c-1.085-0.041-2.096,0.185-3.034,0.678
		c-0.667,0.187-1.246,0.524-1.737,1.012c-0.858,0.555-1.534,1.292-2.028,2.209c-0.264,0.627-0.529,1.254-0.794,1.881
		c-0.093,0.698-0.187,1.395-0.281,2.093c-0.041,1.084,0.185,2.095,0.678,3.033c0.317,0.976,0.861,1.821,1.628,2.534
		c1.101,1.034,2.204,2.067,3.305,3.101c1.152,1.145,2.511,1.937,4.077,2.376c1.637,0.44,3.275,0.44,4.912,0
		c0.736-0.311,1.471-0.621,2.207-0.932c1.389-0.822,2.493-1.926,3.315-3.314c0.675-1.06,1.04-2.205,1.096-3.434
		C1472.651,972.777,1472.596,971.549,1472.211,970.322z"/>
	<path style="fill:#99C55B;" d="M1315.037,924.687c-12.647,0-12.667,19.656,0,19.656
		C1327.685,944.343,1327.706,924.687,1315.037,924.687z"/>
	<path style="fill:#99C55B;" d="M1468.206,1303.519c-0.428-1.316-1.16-2.455-2.195-3.416c-1.325-1.315-2.886-2.225-4.684-2.729
		c-1.044-0.144-2.106-0.379-3.171-0.41l-0.414,0.015c-0.946,0.095-1.955,0.241-2.895,0.387l-0.227,0.04l-0.369,0.099
		c-1.073,0.353-2.142,0.774-3.125,1.334l-0.353,0.226c-0.72,0.519-1.631,1.247-2.135,1.647l-0.173,0.154
		c-0.522,0.676-1.044,1.351-1.566,2.026c-0.731,1.149-1.128,2.391-1.189,3.723c-0.238,0.888-0.238,1.774,0,2.662
		c0.061,1.332,0.458,2.573,1.189,3.722c0.522,0.676,1.044,1.352,1.566,2.027c0.676,0.521,1.351,1.044,2.026,1.565
		c1.149,0.732,2.39,1.129,3.723,1.189l1.207-0.054c0.99,0.302,2.011,0.492,3.083,0.496c0.94-0.127,1.88-0.254,2.822-0.379
		c1.798-0.504,3.359-1.415,4.684-2.729c1.035-0.961,1.767-2.1,2.195-3.416c0.664-1.265,0.969-2.628,0.913-4.089
		C1469.175,1306.147,1468.87,1304.784,1468.206,1303.519z"/>
	<path style="fill:#99C55B;" d="M1506.347,1464.35c-13.658,0-13.682,21.228,0,21.228
		C1520.006,1485.578,1520.028,1464.35,1506.347,1464.35z"/>
	<path style="fill:#99C55B;" d="M1570.914,1522.136c-31.62,0-31.671,49.139,0,49.139
		C1602.532,1571.275,1602.584,1522.136,1570.914,1522.136z"/>
	<path style="fill:#99C55B;" d="M1630.537,1363.028c-0.346-1.232-0.969-2.302-1.87-3.209l-1.472-1.137
		c-1.134-0.658-2.358-0.989-3.67-0.993c-1.002-0.037-1.936,0.172-2.802,0.626c-0.902,0.293-1.682,0.794-2.341,1.504
		c-0.709,0.659-1.21,1.439-1.504,2.341c-0.455,0.867-0.664,1.8-0.626,2.801c0.086,0.645,0.174,1.29,0.26,1.934
		c0.345,1.232,0.968,2.302,1.87,3.209c0.491,0.379,0.982,0.758,1.472,1.137c1.134,0.657,2.358,0.989,3.671,0.992
		c1.001,0.038,1.935-0.171,2.801-0.626c0.902-0.294,1.681-0.795,2.341-1.504c0.709-0.659,1.21-1.439,1.504-2.34
		c0.455-0.867,0.664-1.801,0.626-2.802L1630.537,1363.028z"/>
	<path style="fill:#99C55B;" d="M1716.786,1406.302c-8.346,0-8.36,12.973,0,12.973
		C1725.135,1419.275,1725.149,1406.302,1716.786,1406.302z"/>
	<path style="fill:#99C55B;" d="M1817.938,1253.443c-0.271-0.965-0.759-1.804-1.465-2.516c-0.711-0.706-1.55-1.195-2.515-1.466
		l-0.394-0.073l-0.185-0.034l-0.049-0.009c-0.851-0.156-0.945-0.154-1.801,0.004l-0.099,0.018l-0.381,0.071l-0.098,0.018
		c-0.875,0.168-1.922,0.853-2.54,1.47c-1.437,1.438-2.006,3.584-1.466,5.546c0.528,1.916,2.065,3.453,3.981,3.981
		c1.962,0.54,4.109-0.029,5.546-1.466C1817.91,1257.552,1818.478,1255.404,1817.938,1253.443z"/>
	<path style="fill:#99C55B;" d="M1730.077,1111.991c-0.297-0.702-0.593-1.405-0.889-2.107c-0.555-1.028-1.313-1.853-2.272-2.474
		c-0.55-0.547-1.2-0.926-1.946-1.135c-1.052-0.553-2.185-0.806-3.4-0.76c-0.782,0.105-1.564,0.21-2.345,0.315
		c-0.703,0.296-1.405,0.593-2.107,0.89c-1.028,0.554-1.853,1.311-2.475,2.272c-0.779,0.852-1.306,1.852-1.579,3l-0.165,1.219
		c-0.263,1.174-0.211,2.347,0.158,3.521c0.297,0.703,0.594,1.406,0.891,2.109l0.024,0.056l0.091,0.205l0.183,0.409l0.366,0.817
		c0.717,1.211,1.68,2.175,2.891,2.891c1.257,0.729,2.613,1.096,4.068,1.101c1.455-0.005,2.81-0.372,4.068-1.101
		c1.211-0.716,2.174-1.68,2.891-2.891l0.366-0.817l0.184-0.409l0.083-0.186c0.32-0.714,0.801-1.647,0.923-2.184
		c0.106-0.782,0.211-1.565,0.316-2.347C1730.309,1113.584,1730.201,1112.787,1730.077,1111.991z"/>
	<path style="fill:#99C55B;" d="M1701.592,1011.027c-0.429-1.532-1.205-2.862-2.325-3.99c-0.61-0.471-1.22-0.942-1.83-1.414
		c-1.41-0.817-2.932-1.229-4.564-1.234c-1.244-0.047-2.406,0.212-3.483,0.779c-1.121,0.364-2.091,0.988-2.91,1.869
		c-0.882,0.819-1.505,1.79-1.87,2.91c-0.566,1.078-0.826,2.239-0.779,3.484c0.108,0.801,0.215,1.603,0.323,2.403
		c0.429,1.532,1.204,2.862,2.325,3.99c0.61,0.471,1.22,0.943,1.83,1.414c1.41,0.818,2.931,1.229,4.563,1.235
		c1.246,0.046,2.406-0.213,3.484-0.779c1.12-0.365,2.091-0.988,2.91-1.87c0.882-0.819,1.505-1.789,1.869-2.91
		c0.566-1.078,0.826-2.239,0.779-3.483C1701.807,1012.629,1701.7,1011.828,1701.592,1011.027z"/>
	<path style="fill:#64B445;" d="M1142.319,1159.866c-0.326-1.165-0.917-2.177-1.769-3.035c-0.464-0.358-0.927-0.717-1.392-1.076
		c-1.073-0.622-2.231-0.935-3.472-0.939c-0.947-0.036-1.831,0.161-2.65,0.592c-0.853,0.277-1.591,0.751-2.214,1.422
		c-0.672,0.623-1.146,1.361-1.423,2.214c-0.431,0.82-0.629,1.703-0.593,2.651c0.083,0.609,0.165,1.219,0.246,1.828
		c0.326,1.166,0.917,2.178,1.77,3.036c0.464,0.359,0.928,0.717,1.391,1.076c1.073,0.622,2.23,0.935,3.472,0.939
		c0.947,0.035,1.831-0.162,2.651-0.593c0.853-0.277,1.591-0.751,2.214-1.422c0.671-0.623,1.145-1.361,1.423-2.214
		c0.431-0.82,0.628-1.703,0.592-2.65C1142.483,1161.085,1142.401,1160.476,1142.319,1159.866z"/>
	<path style="fill:#64B445;" d="M1131.907,1300.945c-0.756-2.697-2.121-5.039-4.094-7.026c-1.443-1.552-3.15-2.65-5.124-3.292
		c-1.897-0.997-3.942-1.454-6.135-1.371c-2.873,0.008-5.552,0.733-8.035,2.173c-2.392,1.416-4.297,3.319-5.712,5.711
		c-0.505,0.772-1.01,1.545-1.515,2.317c-0.515,1.221-1.03,2.443-1.545,3.664c-0.639,2.038-0.731,4.077-0.274,6.115
		c0.004,1.383,0.353,2.674,1.046,3.87c0.619,1.901,1.675,3.547,3.171,4.935c1.034,0.799,2.069,1.598,3.104,2.398
		c1.221,0.515,2.442,1.03,3.663,1.546c2.039,0.639,4.077,0.73,6.116,0.274c2.04-0.092,3.941-0.699,5.701-1.819
		c0.772-0.505,1.544-1.01,2.317-1.515c2.392-1.416,4.295-3.32,5.71-5.712c1.44-2.483,2.166-5.162,2.174-8.035
		C1132.286,1303.766,1132.096,1302.355,1131.907,1300.945z"/>
	<path style="fill:#64B445;" d="M1243.296,1311.892c-31.365,0-31.417,48.746,0,48.746
		C1274.663,1360.637,1274.714,1311.892,1243.296,1311.892z"/>
	<path style="fill:#64B445;" d="M1228.948,1144.693c-12.647,0-12.669,19.656,0,19.656
		C1241.597,1164.349,1241.617,1144.693,1228.948,1144.693z"/>
	<path style="fill:#64B445;" d="M1178.452,1056.306c-0.458-1.632-1.284-3.048-2.477-4.25c-0.65-0.502-1.3-1.004-1.95-1.506
		c-1.502-0.872-3.122-1.31-4.861-1.315c-1.325-0.05-2.563,0.226-3.711,0.83c-1.194,0.388-2.227,1.052-3.099,1.991
		c-0.939,0.872-1.603,1.905-1.992,3.1c-0.603,1.148-0.88,2.384-0.829,3.71c0.114,0.854,0.229,1.707,0.343,2.56
		c0.458,1.632,1.284,3.048,2.478,4.25c0.65,0.502,1.3,1.004,1.949,1.506c1.503,0.872,3.123,1.31,4.861,1.315
		c1.326,0.05,2.563-0.226,3.711-0.829c1.193-0.389,2.227-1.052,3.099-1.992c0.939-0.873,1.604-1.906,1.992-3.1
		c0.603-1.147,0.879-2.385,0.829-3.711C1178.682,1058.013,1178.566,1057.16,1178.452,1056.306z"/>
	<path style="fill:#64B445;" d="M1195.47,1228.587c-12.395,0-12.415,19.263,0,19.263
		C1207.865,1247.85,1207.885,1228.587,1195.47,1228.587z"/>
	<path style="fill:#64B445;" d="M1101.901,1391.014c-0.961-1.624-2.254-2.917-3.878-3.878c-1.687-0.978-3.505-1.47-5.457-1.476
		c-1.951,0.006-3.77,0.498-5.456,1.476c-1.625,0.961-2.917,2.254-3.879,3.878l-0.01,0.021l-1.087,2.576l-0.009,0.033
		c-0.292,0.911-0.41,1.909-0.38,2.872l0.374,2.779l0.003,0.011l0.007,0.018l1.04,2.466l0.012,0.016l0.05,0.12l0.181,0.181
		c0.407,0.624,0.824,1.237,1.367,1.776l0.051,0.048c0.042,0.037,1.347,1.049,1.8,1.394l0.479,0.479
		c1.686,0.978,3.505,1.471,5.456,1.476c1.952-0.005,3.77-0.498,5.457-1.476c1.624-0.96,2.917-2.254,3.878-3.878
		c0.977-1.686,1.47-3.505,1.476-5.457C1103.371,1394.519,1102.879,1392.7,1101.901,1391.014z"/>
	<path style="fill:#64B445;" d="M1181.527,1571.115c-0.728-2.597-2.042-4.852-3.943-6.765c-1.035-0.799-2.068-1.599-3.103-2.398
		c-2.392-1.387-4.971-2.085-7.739-2.093c-2.11-0.079-4.079,0.361-5.906,1.321c-1.901,0.619-3.546,1.675-4.934,3.17
		c-1.495,1.388-2.552,3.033-3.17,4.934c-0.96,1.827-1.4,3.796-1.32,5.907l0.547,4.077c0.728,2.597,2.042,4.852,3.943,6.765
		l3.103,2.397c2.392,1.386,4.971,2.084,7.738,2.093c2.111,0.08,4.08-0.361,5.907-1.32c1.901-0.619,3.545-1.675,4.934-3.17
		c1.495-1.389,2.551-3.034,3.17-4.934c0.96-1.827,1.4-3.796,1.32-5.907C1181.892,1573.832,1181.709,1572.474,1181.527,1571.115z"/>
	<path style="fill:#64B445;" d="M1279.167,1430.052c-11.635,0-11.654,18.083,0,18.083
		C1290.803,1448.135,1290.822,1430.052,1279.167,1430.052z"/>
	<path style="fill:#64B445;" d="M1178.73,1430.085c-14.671,0-14.695,22.801,0,22.801
		C1193.401,1452.886,1193.426,1430.085,1178.73,1430.085z"/>
	<path style="fill:#64B445;" d="M1312.646,1545.099c-17.454,0-17.482,27.125,0,27.125
		C1330.1,1572.224,1330.129,1545.099,1312.646,1545.099z"/>
	<path style="fill:#64B445;" d="M1315.037,1641.081c-10.876,0-10.895,16.904,0,16.904
		C1325.914,1657.985,1325.933,1641.081,1315.037,1641.081z"/>
	<path style="fill:#64B445;" d="M1447.801,1653.729c-0.532-1.898-1.493-3.546-2.882-4.944c-0.755-0.584-1.512-1.168-2.266-1.752
		c-1.748-1.013-3.633-1.523-5.655-1.529c-1.543-0.058-2.981,0.263-4.317,0.965c-1.389,0.452-2.591,1.224-3.606,2.317
		c-1.092,1.015-1.865,2.217-2.316,3.606c-0.701,1.335-1.024,2.774-0.965,4.316c0.133,0.993,0.267,1.986,0.4,2.979
		c0.532,1.898,1.493,3.546,2.881,4.944c0.756,0.584,1.512,1.168,2.268,1.752c1.747,1.014,3.632,1.524,5.655,1.53
		c1.542,0.058,2.981-0.263,4.316-0.965c1.39-0.452,2.591-1.224,3.606-2.316c1.093-1.015,1.865-2.217,2.317-3.606
		c0.701-1.335,1.023-2.774,0.964-4.317C1448.068,1655.715,1447.934,1654.722,1447.801,1653.729z"/>
	<path style="fill:#64B445;" d="M531.441,526.16c-0.459-1.413-1.244-2.636-2.355-3.669c-1.423-1.413-3.1-2.39-5.031-2.932
		c-1.341-0.395-2.782-0.566-4.173-0.586l-0.654,0.039c-1.032,0.116-2.112,0.251-3.135,0.424l-0.338,0.069
		c-1.279,0.312-2.546,0.934-3.691,1.496l-0.538,0.302c-1.732,1.102-3.168,2.339-4.219,4.145c-1.631,2.809-1.719,5.611-1.046,8.62
		l0.077,0.268l0.065,0.175c0.223,0.584,0.653,1.647,0.931,2.208l0.295,0.477c0.381,0.516,0.854,1.195,1.349,1.72
		c0.835,0.888,2.029,1.565,3.198,1.887l0.65,0.081c1.207,0.457,2.455,0.774,3.786,0.778l1.287-0.166
		c1.005,0.287,2.043,0.451,3.125,0.455c1.01-0.136,2.02-0.271,3.03-0.407c1.931-0.542,3.608-1.519,5.031-2.932
		c1.111-1.033,1.896-2.256,2.355-3.669c0.715-1.358,1.042-2.823,0.983-4.392C532.484,528.982,532.156,527.518,531.441,526.16z"/>
	<path style="fill:#64B445;" d="M506.551,694.531c-0.579-2.065-1.624-3.857-3.134-5.377c-0.822-0.635-1.645-1.27-2.465-1.906
		c-1.902-1.102-3.953-1.656-6.153-1.663c-1.677-0.063-3.242,0.286-4.695,1.049c-1.51,0.492-2.818,1.332-3.921,2.52
		c-1.511,1.521-2.555,3.313-3.134,5.377c-0.582,2.16-0.582,4.32,0,6.48c0.126,0.746,0.251,1.492,0.379,2.239l1.188,2.818
		c0.74,1.374,1.753,2.477,3.038,3.309c0.734,0.73,1.602,1.236,2.602,1.516c1.405,0.739,2.92,1.077,4.543,1.016
		c1.045-0.141,2.091-0.281,3.135-0.422l2.818-1.188c1.373-0.741,2.476-1.754,3.309-3.037c1.042-1.14,1.744-2.476,2.111-4.011
		c0.125-0.746,0.252-1.492,0.378-2.239C507.13,698.851,507.13,696.691,506.551,694.531z"/>
	<path style="fill:#64B445;" d="M619.15,592.942c-36.424,0-36.484,56.608,0,56.608C655.576,649.55,655.636,592.942,619.15,592.942z"
		/>
	<path style="fill:#64B445;" d="M600.02,785.039c-16.948,0-16.976,26.338,0,26.338C616.967,811.377,616.995,785.039,600.02,785.039z
		"/>
	<path style="fill:#64B445;" d="M714.805,744.942c-13.153,0-13.175,20.442,0,20.442C727.958,765.384,727.98,744.942,714.805,744.942
		z"/>
	<path style="fill:#64B445;" d="M788.938,686.337c-11.636,0-11.655,18.083,0,18.083C800.573,704.42,800.594,686.337,788.938,686.337
		z"/>
	<path style="fill:#64B445;" d="M760.24,812.097c-12.899,0-12.921,20.048,0,20.048C773.142,832.146,773.163,812.097,760.24,812.097z
		"/>
	<path style="fill:#64B445;" d="M662.196,698.688c-11.13,0-11.15,17.297,0,17.297C673.326,715.985,673.343,698.688,662.196,698.688z
		"/>
	<path style="fill:#64B445;" d="M650.238,865.297c-12.141,0-12.162,18.87,0,18.87C662.38,884.167,662.4,865.297,650.238,865.297z"/>
	<path style="fill:#64B445;" d="M506.757,748.316c-11.889,0-11.909,18.476,0,18.476
		C518.645,766.793,518.665,748.316,506.757,748.316z"/>
	<path style="fill:#64B445;" d="M611.975,469.313c-10.877,0-10.894,16.904,0,16.904
		C622.852,486.217,622.871,469.313,611.975,469.313z"/>
	<path style="fill:#64B445;" d="M922.854,712.021c-9.359,0-9.374,14.545,0,14.545C932.213,726.565,932.228,712.021,922.854,712.021z
		"/>
	<path style="fill:#64B445;" d="M1075.901,629.731c-10.624,0-10.642,16.511,0,16.511
		C1086.525,646.242,1086.542,629.731,1075.901,629.731z"/>
	<path style="fill:#64B445;" d="M1173.947,595.04c-9.106,0-9.121,14.152,0,14.152C1183.053,609.192,1183.068,595.04,1173.947,595.04
		z"/>
	<path style="fill:#FFFFFF;" d="M1684.346,726.042c-13.928-17.088-32.138-30.912-49.021-44.926
		c-17.707-14.698-37.406-27.597-58.811-36.316c-42.98-17.505-88.164-28.282-134.4-32.111
		c-88.709-7.346-179.722,13.852-258.618,54.436c-22.107,11.372-43.133,24.729-63.043,39.611
		c-20.535,15.348-37.054,31.943-53.375,51.566c-1.697,2.04,0.594,5.889,3.097,4.014c67.146-50.323,142.403-93.139,225.78-108.764
		c83-15.554,170.988-7.154,250.629,20.299c22.519,7.762,44.719,16.654,67.43,23.839c11.76,3.72,24.001,7.387,35.059,12.826
		c11.427,5.622,22.408,11.909,34.084,17.07C1684.184,728.04,1685.071,726.931,1684.346,726.042z"/>
	<path style="fill:#FFFFFF;" d="M947.47,904.789c-15.13,19.624-31.477,38.386-46.196,58.3
		c-13.786,18.652-26.301,38.123-39.42,57.242c-24.08,35.088-46.941,71.193-73.658,104.387
		c-52.46,65.178-116.618,122.802-198.018,147.774c-43.948,13.483-90.901,16.472-136.621,13.845
		c-1.726-0.099-2.446,2.516-0.894,3.297c18.616,9.351,36.097,15.227,56.925,17.186c21.442,2.017,42.811,1.272,64.065-2.118
		c43.963-7.014,86.509-23.679,124.727-46.338c79.113-46.904,138.541-119.943,185.858-197.571
		c13.891-22.789,27.125-46.862,37.937-71.265c11.894-26.845,21.111-54.722,30.682-82.467
		C954.047,903.617,949.332,902.374,947.47,904.789z"/>
	<path style="fill:#FFFFFF;" d="M998.129,848.925c-0.766-2.73-2.147-5.1-4.144-7.111c-1.088-0.84-2.174-1.679-3.261-2.519
		c-2.513-1.458-5.224-2.191-8.133-2.2c-2.219-0.083-4.288,0.379-6.208,1.387c-1.998,0.65-3.727,1.761-5.187,3.332
		c-1.571,1.46-2.681,3.189-3.331,5.186c-1.009,1.921-1.472,3.99-1.388,6.208c0.192,1.428,0.384,2.856,0.576,4.284
		c0.765,2.73,2.147,5.1,4.143,7.111c1.087,0.84,2.175,1.679,3.262,2.519c2.513,1.458,5.224,2.191,8.133,2.2
		c2.219,0.084,4.288-0.379,6.209-1.387c1.997-0.65,3.726-1.761,5.186-3.332c1.571-1.46,2.682-3.189,3.332-5.186
		c1.009-1.921,1.472-3.99,1.387-6.209C998.514,851.781,998.321,850.353,998.129,848.925z"/>
</g>
</svg>
